<mxfile host="app.diagrams.net" agent="Mozilla/5.0 (Windows NT 10.0; Win64; x64) AppleWebKit/537.36 (KHTML, like Gecko) Chrome/133.0.0.0 Safari/537.36" version="26.0.16">
  <diagram name="PÃ¡gina-1" id="hxM0-3gxIPmLHDWa0tyM">
    <mxGraphModel dx="1100" dy="585" grid="1" gridSize="10" guides="1" tooltips="1" connect="1" arrows="1" fold="1" page="1" pageScale="1" pageWidth="827" pageHeight="1169" math="0" shadow="0">
      <root>
        <mxCell id="0" />
        <mxCell id="1" parent="0" />
        <mxCell id="lcGFJCKf6TelR6gxPrj8-1" value="Colegiado" style="rounded=0;whiteSpace=wrap;html=1;fillColor=#dae8fc;strokeColor=#6c8ebf;" vertex="1" parent="1">
          <mxGeometry x="230" y="450" width="130" height="40" as="geometry" />
        </mxCell>
        <mxCell id="lcGFJCKf6TelR6gxPrj8-11" style="edgeStyle=orthogonalEdgeStyle;rounded=0;orthogonalLoop=1;jettySize=auto;html=1;exitX=1;exitY=0.5;exitDx=0;exitDy=0;" edge="1" parent="1" source="lcGFJCKf6TelR6gxPrj8-2" target="lcGFJCKf6TelR6gxPrj8-6">
          <mxGeometry relative="1" as="geometry" />
        </mxCell>
        <mxCell id="lcGFJCKf6TelR6gxPrj8-14" style="edgeStyle=orthogonalEdgeStyle;rounded=0;orthogonalLoop=1;jettySize=auto;html=1;exitX=0.5;exitY=1;exitDx=0;exitDy=0;entryX=0.5;entryY=0;entryDx=0;entryDy=0;" edge="1" parent="1" source="lcGFJCKf6TelR6gxPrj8-2" target="lcGFJCKf6TelR6gxPrj8-7">
          <mxGeometry relative="1" as="geometry" />
        </mxCell>
        <mxCell id="lcGFJCKf6TelR6gxPrj8-2" value="Partido" style="rounded=0;whiteSpace=wrap;html=1;fillColor=#dae8fc;strokeColor=#6c8ebf;" vertex="1" parent="1">
          <mxGeometry x="230" y="190" width="130" height="40" as="geometry" />
        </mxCell>
        <mxCell id="lcGFJCKf6TelR6gxPrj8-8" style="edgeStyle=orthogonalEdgeStyle;rounded=0;orthogonalLoop=1;jettySize=auto;html=1;exitX=1;exitY=0.5;exitDx=0;exitDy=0;entryX=0;entryY=0.5;entryDx=0;entryDy=0;" edge="1" parent="1" source="lcGFJCKf6TelR6gxPrj8-3" target="lcGFJCKf6TelR6gxPrj8-5">
          <mxGeometry relative="1" as="geometry" />
        </mxCell>
        <mxCell id="lcGFJCKf6TelR6gxPrj8-3" value="Jugador" style="rounded=0;whiteSpace=wrap;html=1;fillColor=#dae8fc;strokeColor=#6c8ebf;" vertex="1" parent="1">
          <mxGeometry x="30" y="30" width="130" height="40" as="geometry" />
        </mxCell>
        <mxCell id="lcGFJCKf6TelR6gxPrj8-4" value="Equipo" style="rounded=0;whiteSpace=wrap;html=1;fillColor=#dae8fc;strokeColor=#6c8ebf;" vertex="1" parent="1">
          <mxGeometry x="440" y="30" width="130" height="40" as="geometry" />
        </mxCell>
        <mxCell id="lcGFJCKf6TelR6gxPrj8-9" style="edgeStyle=orthogonalEdgeStyle;rounded=0;orthogonalLoop=1;jettySize=auto;html=1;exitX=1;exitY=0.5;exitDx=0;exitDy=0;entryX=0;entryY=0.5;entryDx=0;entryDy=0;" edge="1" parent="1" source="lcGFJCKf6TelR6gxPrj8-5" target="lcGFJCKf6TelR6gxPrj8-4">
          <mxGeometry relative="1" as="geometry" />
        </mxCell>
        <mxCell id="lcGFJCKf6TelR6gxPrj8-5" value="Pertenece" style="rhombus;whiteSpace=wrap;html=1;fillColor=#f8cecc;strokeColor=#b85450;gradientColor=#ea6b66;" vertex="1" parent="1">
          <mxGeometry x="240" y="10" width="120" height="80" as="geometry" />
        </mxCell>
        <mxCell id="lcGFJCKf6TelR6gxPrj8-12" style="edgeStyle=orthogonalEdgeStyle;rounded=0;orthogonalLoop=1;jettySize=auto;html=1;exitX=0.5;exitY=0;exitDx=0;exitDy=0;entryX=0.5;entryY=1;entryDx=0;entryDy=0;" edge="1" parent="1" source="lcGFJCKf6TelR6gxPrj8-6" target="lcGFJCKf6TelR6gxPrj8-4">
          <mxGeometry relative="1" as="geometry" />
        </mxCell>
        <mxCell id="lcGFJCKf6TelR6gxPrj8-6" value="Involucra" style="rhombus;whiteSpace=wrap;html=1;fillColor=#f8cecc;gradientColor=#ea6b66;strokeColor=#b85450;" vertex="1" parent="1">
          <mxGeometry x="445" y="170" width="120" height="80" as="geometry" />
        </mxCell>
        <mxCell id="lcGFJCKf6TelR6gxPrj8-15" style="edgeStyle=orthogonalEdgeStyle;rounded=0;orthogonalLoop=1;jettySize=auto;html=1;exitX=0.5;exitY=1;exitDx=0;exitDy=0;" edge="1" parent="1" source="lcGFJCKf6TelR6gxPrj8-7" target="lcGFJCKf6TelR6gxPrj8-1">
          <mxGeometry relative="1" as="geometry" />
        </mxCell>
        <mxCell id="lcGFJCKf6TelR6gxPrj8-7" value="tiene" style="rhombus;whiteSpace=wrap;html=1;fillColor=#f8cecc;gradientColor=#ea6b66;strokeColor=#b85450;" vertex="1" parent="1">
          <mxGeometry x="235" y="300" width="120" height="80" as="geometry" />
        </mxCell>
        <mxCell id="lcGFJCKf6TelR6gxPrj8-10" value="1.M" style="text;html=1;align=center;verticalAlign=middle;resizable=0;points=[];autosize=1;strokeColor=none;fillColor=none;" vertex="1" parent="1">
          <mxGeometry x="150" y="28" width="40" height="30" as="geometry" />
        </mxCell>
        <mxCell id="lcGFJCKf6TelR6gxPrj8-13" value="1.M" style="text;html=1;align=center;verticalAlign=middle;resizable=0;points=[];autosize=1;strokeColor=none;fillColor=none;" vertex="1" parent="1">
          <mxGeometry x="360" y="178" width="40" height="30" as="geometry" />
        </mxCell>
        <mxCell id="lcGFJCKf6TelR6gxPrj8-16" value="N.M" style="text;html=1;align=center;verticalAlign=middle;resizable=0;points=[];autosize=1;strokeColor=none;fillColor=none;" vertex="1" parent="1">
          <mxGeometry x="245" y="228" width="50" height="30" as="geometry" />
        </mxCell>
      </root>
    </mxGraphModel>
  </diagram>
</mxfile>
